<svg xmlns="http://www.w3.org/2000/svg" xmlns:xlink="http://www.w3.org/1999/xlink" width="500" zoomAndPan="magnify" viewBox="0 0 375 374.999991" height="500" preserveAspectRatio="xMidYMid meet" version="1.0"><defs><g/><clipPath id="bc85e8fae5"><path d="M 137 181 L 238 181 L 238 264.375 L 137 264.375 Z M 137 181 " clip-rule="nonzero"/></clipPath><clipPath id="8c2c069662"><path d="M 89.144531 124 L 286 124 L 286 188 L 89.144531 188 Z M 89.144531 124 " clip-rule="nonzero"/></clipPath></defs><path fill="#ffffff" d="M 40.988281 7.226562 C 40.988281 7.226562 0.273438 104.09375 104.128906 128.6875 L 149.835938 90.789062 C 149.835938 90.789062 75.214844 106.636719 40.988281 7.226562 " fill-opacity="1" fill-rule="nonzero"/><path fill="#000000" d="M 36.273438 5.929688 C 30.441406 19.863281 28.011719 35.992188 28.253906 50.988281 C 28.472656 64.363281 31.511719 77.609375 37.769531 89.46875 C 45.386719 103.90625 58.152344 114.933594 72.484375 122.433594 C 77.925781 125.285156 83.679688 127.589844 89.488281 129.585938 C 94.132812 131.1875 103.320312 135.675781 107.601562 132.128906 C 111.621094 128.792969 115.640625 125.464844 119.65625 122.128906 C 130.867188 112.835938 142.078125 103.535156 153.289062 94.242188 C 157.351562 90.871094 152.90625 85.164062 148.53125 86.078125 C 148.292969 86.128906 148.054688 86.171875 147.8125 86.214844 C 145.816406 86.554688 148.339844 86.1875 146.527344 86.398438 C 143.695312 86.722656 140.839844 86.835938 137.992188 86.832031 C 128.578125 86.816406 119.625 85.113281 110.625 81.96875 C 77.066406 70.238281 56.84375 37.902344 45.703125 5.929688 C 43.644531 0.0234375 34.195312 2.5625 36.273438 8.523438 C 48.492188 43.582031 70 76.628906 105.863281 90.585938 C 119.644531 95.949219 136.4375 98.578125 151.132812 95.492188 C 149.546875 92.773438 147.960938 90.054688 146.375 87.335938 C 131.140625 99.972656 115.90625 112.601562 100.667969 125.234375 C 102.257812 124.816406 103.84375 124.398438 105.425781 123.980469 C 86.878906 119.5 68.820312 111.894531 55.582031 97.757812 C 46.226562 87.769531 40.9375 74.953125 38.851562 61.570312 C 36.171875 44.355469 39.121094 25.722656 45.308594 9.511719 C 45.433594 9.183594 45.566406 8.851562 45.703125 8.523438 C 48.132812 2.714844 38.667969 0.210938 36.273438 5.929688 " fill-opacity="1" fill-rule="nonzero"/><path fill="#ffffff" d="M 333.902344 7.226562 C 333.902344 7.226562 374.617188 104.09375 270.761719 128.6875 L 225.058594 90.789062 C 225.058594 90.789062 299.679688 106.636719 333.902344 7.226562 " fill-opacity="1" fill-rule="nonzero"/><path fill="#000000" d="M 329.191406 8.523438 C 334.910156 22.195312 337.273438 37.75 336.820312 52.441406 C 336.417969 65.332031 332.988281 77.957031 326.117188 88.925781 C 317.082031 103.347656 302.132812 112.9375 286.46875 118.875 C 280.929688 120.972656 275.21875 122.589844 269.464844 123.980469 C 271.050781 124.398438 272.636719 124.816406 274.222656 125.234375 C 258.988281 112.601562 243.75 99.972656 228.515625 87.335938 C 226.929688 90.054688 225.34375 92.773438 223.757812 95.492188 C 238.285156 98.546875 254.605469 95.914062 268.304688 90.859375 C 304.570312 77.476562 326.410156 43.550781 338.617188 8.523438 C 340.699219 2.5625 331.25 0.0234375 329.191406 5.929688 C 318.054688 37.882812 298.152344 69.472656 264.984375 81.710938 C 255.957031 85.042969 246.835938 86.703125 237.371094 86.828125 C 234.457031 86.867188 231.535156 86.734375 228.632812 86.425781 C 228.1875 86.382812 226.304688 86.125 228.25 86.394531 C 227.902344 86.347656 227.558594 86.292969 227.210938 86.234375 C 226.925781 86.1875 226.640625 86.140625 226.359375 86.078125 C 221.984375 85.164062 217.539062 90.871094 221.601562 94.242188 C 230.207031 101.375 238.820312 108.515625 247.425781 115.65625 C 252.683594 120.015625 257.941406 124.375 263.199219 128.734375 C 264.441406 129.761719 265.679688 130.789062 266.917969 131.816406 C 270.273438 134.597656 273.785156 133.007812 277.613281 131.972656 C 295.707031 127.078125 313.296875 118.464844 326.226562 104.660156 C 335.957031 94.269531 342.257812 81.097656 344.957031 67.191406 C 348.800781 47.378906 346.449219 24.640625 338.617188 5.929688 C 336.226562 0.210938 326.757812 2.714844 329.191406 8.523438 " fill-opacity="1" fill-rule="nonzero"/><path fill="#ffffff" d="M 74.246094 100.277344 C 97.640625 100.277344 116.609375 120.773438 116.609375 120.773438 C 116.609375 120.773438 97.640625 141.277344 74.246094 141.277344 C 50.851562 141.277344 31.890625 120.773438 31.890625 120.773438 C 31.890625 120.773438 50.851562 100.277344 74.246094 100.277344 " fill-opacity="1" fill-rule="nonzero"/><path fill="#000000" d="M 74.246094 105.15625 C 88.847656 105.417969 103.316406 113.6875 113.148438 124.226562 C 113.148438 121.925781 113.148438 119.628906 113.148438 117.324219 C 103.316406 127.863281 88.847656 136.132812 74.246094 136.394531 C 59.851562 136.65625 44.941406 127.609375 35.34375 117.324219 C 35.34375 119.628906 35.34375 121.925781 35.34375 124.226562 C 45.179688 113.6875 59.648438 105.417969 74.246094 105.15625 C 80.546875 105.042969 80.554688 95.28125 74.246094 95.394531 C 57.121094 95.703125 40.015625 104.910156 28.429688 117.324219 C 26.5625 119.320312 26.5625 122.226562 28.429688 124.226562 C 40.015625 136.640625 57.121094 145.847656 74.246094 146.15625 C 91.136719 146.464844 108.765625 136.332031 120.066406 124.226562 C 121.929688 122.226562 121.929688 119.320312 120.066406 117.324219 C 108.484375 104.910156 91.378906 95.703125 74.246094 95.394531 C 67.9375 95.28125 67.949219 105.042969 74.246094 105.15625 " fill-opacity="1" fill-rule="nonzero"/><path fill="#ffffff" d="M 300.644531 100.277344 C 324.039062 100.277344 343.003906 120.773438 343.003906 120.773438 C 343.003906 120.773438 324.039062 141.277344 300.644531 141.277344 C 277.25 141.277344 258.28125 120.773438 258.28125 120.773438 C 258.28125 120.773438 277.25 100.277344 300.644531 100.277344 " fill-opacity="1" fill-rule="nonzero"/><path fill="#000000" d="M 300.644531 105.15625 C 315.242188 105.417969 329.710938 113.6875 339.546875 124.226562 C 339.546875 121.925781 339.546875 119.628906 339.546875 117.324219 C 329.710938 127.863281 315.242188 136.132812 300.644531 136.394531 C 286.246094 136.65625 271.339844 127.609375 261.742188 117.324219 C 261.742188 119.628906 261.742188 121.925781 261.742188 124.226562 C 271.578125 113.6875 286.042969 105.417969 300.644531 105.15625 C 306.941406 105.042969 306.953125 95.28125 300.644531 95.394531 C 283.515625 95.703125 266.410156 104.910156 254.828125 117.324219 C 252.960938 119.320312 252.960938 122.226562 254.828125 124.226562 C 266.410156 136.640625 283.515625 145.847656 300.644531 146.15625 C 317.53125 146.464844 335.164062 136.332031 346.460938 124.226562 C 348.328125 122.226562 348.328125 119.320312 346.460938 117.324219 C 334.875 104.910156 317.773438 95.703125 300.644531 95.394531 C 294.335938 95.28125 294.34375 105.042969 300.644531 105.15625 " fill-opacity="1" fill-rule="nonzero"/><path fill="#000000" d="M 90.335938 182.316406 L 90.335938 118.921875 C 90.335938 93.984375 110.585938 73.773438 135.570312 73.773438 L 239.324219 73.773438 C 264.304688 73.773438 284.554688 93.984375 284.554688 118.921875 L 284.554688 182.316406 C 284.554688 207.25 264.304688 227.464844 239.324219 227.464844 L 135.570312 227.464844 C 110.585938 227.464844 90.335938 207.25 90.335938 182.316406 " fill-opacity="1" fill-rule="nonzero"/><path fill="#000000" d="M 95.226562 182.316406 C 95.226562 160.339844 94.332031 138.175781 95.304688 116.21875 C 96.238281 95.230469 115.027344 78.652344 135.675781 78.652344 C 144.507812 78.652344 153.34375 78.652344 162.179688 78.652344 C 187.699219 78.652344 213.222656 78.652344 238.746094 78.652344 C 258.277344 78.652344 274.640625 92.007812 278.886719 110.960938 C 279.921875 115.582031 279.664062 120.433594 279.664062 125.144531 C 279.664062 132.023438 279.664062 138.902344 279.664062 145.785156 C 279.664062 157.859375 279.664062 169.933594 279.664062 182.007812 C 279.664062 202.585938 263.964844 220.28125 243.371094 222.40625 C 234.949219 223.277344 226.160156 222.582031 217.726562 222.582031 C 202.203125 222.582031 186.679688 222.582031 171.160156 222.582031 C 159.488281 222.582031 147.816406 222.582031 136.148438 222.582031 C 113.679688 222.582031 95.558594 204.730469 95.226562 182.316406 C 95.136719 176.027344 85.355469 176.019531 85.445312 182.316406 C 85.773438 204.46875 100.0625 223.570312 121.203125 230.257812 C 130.644531 233.246094 141.265625 232.347656 151.054688 232.347656 C 178.847656 232.347656 206.640625 232.347656 234.433594 232.347656 C 249.042969 232.347656 262.21875 228.984375 273.394531 219 C 285.789062 207.9375 289.445312 192.570312 289.445312 176.6875 C 289.445312 162.15625 289.445312 147.632812 289.445312 133.105469 C 289.445312 119.410156 289.75 106.523438 282.8125 94.035156 C 273.945312 78.078125 256.367188 68.890625 238.378906 68.890625 C 228.050781 68.890625 217.726562 68.890625 207.40625 68.890625 C 183.464844 68.890625 159.519531 68.890625 135.578125 68.890625 C 118.433594 68.890625 102.867188 77.78125 93.402344 91.875 C 86.777344 101.738281 85.445312 113.03125 85.445312 124.550781 C 85.445312 143.804688 85.445312 163.0625 85.445312 182.316406 C 85.445312 188.609375 95.226562 188.609375 95.226562 182.316406 " fill-opacity="1" fill-rule="nonzero"/><path fill="#ffffff" d="M 141.996094 238.023438 L 141.996094 207.882812 C 141.996094 196.15625 151.519531 186.652344 163.261719 186.652344 L 211.628906 186.652344 C 223.375 186.652344 232.894531 196.15625 232.894531 207.882812 L 232.894531 238.023438 C 232.894531 249.75 223.375 259.253906 211.628906 259.253906 L 163.261719 259.253906 C 151.519531 259.253906 141.996094 249.75 141.996094 238.023438 " fill-opacity="1" fill-rule="nonzero"/><g clip-path="url(#bc85e8fae5)"><path fill="#000000" d="M 146.886719 238.023438 C 146.886719 232.519531 146.886719 227.015625 146.886719 221.511719 C 146.886719 215.859375 146.128906 209.523438 147.359375 203.953125 C 150.875 188.050781 171.148438 191.535156 183.113281 191.535156 C 190.511719 191.535156 197.902344 191.535156 205.300781 191.535156 C 211.089844 191.535156 216.175781 191.316406 221.3125 194.671875 C 227.941406 199 228.007812 206.574219 228.007812 213.527344 C 228.007812 220.726562 228.007812 227.929688 228.007812 235.132812 C 228.007812 245.070312 222.695312 254.371094 211.527344 254.371094 C 204.941406 254.371094 198.363281 254.371094 191.777344 254.371094 C 183.210938 254.371094 174.644531 254.371094 166.078125 254.371094 C 156.007812 254.371094 147.230469 249.058594 146.886719 238.023438 C 146.691406 231.746094 136.910156 231.726562 137.105469 238.023438 C 137.441406 248.820312 143.839844 258.855469 154.277344 262.53125 C 159.515625 264.378906 164.835938 264.136719 170.285156 264.136719 C 183.671875 264.136719 197.054688 264.136719 210.441406 264.136719 C 218.757812 264.136719 226.390625 261.050781 231.792969 254.613281 C 236.878906 248.554688 237.785156 241.402344 237.785156 233.84375 C 237.785156 226.582031 237.785156 219.324219 237.785156 212.0625 C 237.785156 204.503906 236.878906 197.351562 231.792969 191.292969 C 223.132812 180.96875 211.167969 181.769531 199.089844 181.769531 C 187.542969 181.769531 175.996094 181.769531 164.449219 181.769531 C 149.296875 181.769531 137.105469 193.136719 137.105469 208.5 C 137.105469 218.34375 137.105469 228.183594 137.105469 238.023438 C 137.105469 244.320312 146.886719 244.320312 146.886719 238.023438 " fill-opacity="1" fill-rule="nonzero"/></g><path fill="#000000" d="M 167.761719 232.714844 C 180.371094 232.714844 180.371094 213.191406 167.761719 213.191406 C 155.148438 213.191406 155.148438 232.714844 167.761719 232.714844 " fill-opacity="1" fill-rule="nonzero"/><path fill="#000000" d="M 207.132812 232.714844 C 219.742188 232.714844 219.742188 213.191406 207.132812 213.191406 C 194.519531 213.191406 194.519531 232.714844 207.132812 232.714844 " fill-opacity="1" fill-rule="nonzero"/><path fill="#000000" d="M 202.242188 222.953125 C 201.964844 231.21875 195.726562 237.441406 187.445312 237.722656 C 179.167969 238.003906 172.914062 230.796875 172.652344 222.953125 C 172.4375 216.675781 162.660156 216.65625 162.871094 222.953125 C 163.332031 236.628906 173.742188 247.023438 187.445312 247.484375 C 201.140625 247.945312 211.582031 235.9375 212.019531 222.953125 C 212.234375 216.65625 202.453125 216.675781 202.242188 222.953125 " fill-opacity="1" fill-rule="nonzero"/><path fill="#ffffff" d="M 131.945312 167.324219 C 144.5625 167.324219 144.5625 147.800781 131.945312 147.800781 C 119.332031 147.800781 119.332031 167.324219 131.945312 167.324219 " fill-opacity="1" fill-rule="nonzero"/><path fill="#ffffff" d="M 242.945312 167.324219 C 255.558594 167.324219 255.558594 147.800781 242.945312 147.800781 C 230.332031 147.800781 230.332031 167.324219 242.945312 167.324219 " fill-opacity="1" fill-rule="nonzero"/><g clip-path="url(#8c2c069662)"><path fill="#a6a6a6" d="M 90.53125 135.929688 C 91.921875 137.3125 98.859375 141.464844 100.242188 145.621094 C 101.632812 149.769531 104.414062 176.324219 112.738281 183.246094 C 121.328125 190.375 153.71875 187.71875 159.921875 184.636719 C 173.800781 177.722656 175.503906 155.390625 177.957031 145.613281 C 179.339844 140.078125 187.667969 140.078125 187.667969 140.078125 C 187.667969 140.078125 195.996094 140.078125 197.382812 145.609375 C 199.839844 155.390625 201.554688 177.785156 215.421875 184.6875 C 221.628906 187.78125 254.019531 190.4375 262.621094 183.3125 C 270.933594 176.386719 273.707031 149.761719 275.097656 145.609375 C 276.476562 141.460938 283.425781 137.308594 284.808594 135.925781 C 286.203125 134.542969 286.203125 129.003906 284.808594 127.617188 C 282.035156 124.851562 249.289062 122.386719 214.03125 126.234375 C 206.996094 127.003906 204.320312 129 187.660156 129 C 171.015625 129 168.328125 126.996094 161.296875 126.234375 C 126.0625 122.390625 93.3125 124.855469 90.53125 127.621094 C 89.148438 129.003906 89.148438 134.546875 90.53125 135.929688 Z M 90.53125 135.929688 " fill-opacity="1" fill-rule="evenodd"/></g><g fill="#000000" fill-opacity="1"><g transform="translate(56.948934, 321.483546)"><g><path d="M 1.1875 -13.921875 C 2.664062 -13.921875 3.828125 -14.207031 4.671875 -14.78125 C 5.515625 -15.351562 5.9375 -16.160156 5.9375 -17.203125 L 5.9375 -22.125 C 5.9375 -23.914062 6.253906 -25.253906 6.890625 -26.140625 C 7.523438 -27.035156 8.550781 -27.6875 9.96875 -28.09375 C 11.394531 -28.5 13.367188 -28.703125 15.890625 -28.703125 L 15.890625 -23.296875 C 14.742188 -23.265625 13.96875 -23.179688 13.5625 -23.046875 C 13.15625 -22.910156 12.828125 -22.695312 12.578125 -22.40625 C 12.335938 -22.125 12.21875 -21.738281 12.21875 -21.25 L 12.21875 -16 C 12.21875 -14.539062 11.851562 -13.421875 11.125 -12.640625 C 10.394531 -11.867188 9.207031 -11.363281 7.5625 -11.125 L 7.5625 -10.890625 C 9.21875 -10.640625 10.40625 -10.128906 11.125 -9.359375 C 11.851562 -8.597656 12.21875 -7.523438 12.21875 -6.140625 L 12.21875 -0.796875 C 12.21875 -0.285156 12.351562 0.109375 12.625 0.390625 C 12.894531 0.671875 13.253906 0.878906 13.703125 1.015625 C 14.148438 1.148438 14.878906 1.238281 15.890625 1.28125 L 15.890625 6.65625 C 13.347656 6.65625 11.363281 6.445312 9.9375 6.03125 C 8.519531 5.625 7.5 4.972656 6.875 4.078125 C 6.25 3.179688 5.9375 1.820312 5.9375 0 L 5.9375 -4.796875 C 5.9375 -5.828125 5.503906 -6.632812 4.640625 -7.21875 C 3.773438 -7.800781 2.625 -8.09375 1.1875 -8.09375 Z M 1.1875 -13.921875 "/></g></g></g><g fill="#000000" fill-opacity="1"><g transform="translate(74.115394, 321.483546)"><g/></g></g><g fill="#000000" fill-opacity="1"><g transform="translate(84.411392, 321.483546)"><g><path d="M 23.59375 -19.296875 C 23.59375 -16.140625 22.660156 -13.695312 20.796875 -11.96875 C 18.929688 -10.25 16.285156 -9.390625 12.859375 -9.390625 L 10.703125 -9.390625 L 10.703125 0 L 3.0625 0 L 3.0625 -28.296875 L 12.859375 -28.296875 C 16.429688 -28.296875 19.113281 -27.515625 20.90625 -25.953125 C 22.695312 -24.390625 23.59375 -22.171875 23.59375 -19.296875 Z M 10.703125 -15.625 L 12.09375 -15.625 C 13.238281 -15.625 14.148438 -15.945312 14.828125 -16.59375 C 15.515625 -17.238281 15.859375 -18.128906 15.859375 -19.265625 C 15.859375 -21.171875 14.796875 -22.125 12.671875 -22.125 L 10.703125 -22.125 Z M 10.703125 -15.625 "/></g></g></g><g fill="#000000" fill-opacity="1"><g transform="translate(109.454663, 321.483546)"><g><path d="M 10.21875 0 L 2.65625 0 L 2.65625 -21.9375 L 10.21875 -21.9375 Z M 2.453125 -27.390625 C 2.453125 -28.523438 2.769531 -29.367188 3.40625 -29.921875 C 4.039062 -30.472656 5.0625 -30.75 6.46875 -30.75 C 7.875 -30.75 8.898438 -30.460938 9.546875 -29.890625 C 10.191406 -29.328125 10.515625 -28.492188 10.515625 -27.390625 C 10.515625 -25.171875 9.164062 -24.0625 6.46875 -24.0625 C 3.789062 -24.0625 2.453125 -25.171875 2.453125 -27.390625 Z M 2.453125 -27.390625 "/></g></g></g><g fill="#000000" fill-opacity="1"><g transform="translate(122.344013, 321.483546)"><g><path d="M 15.78125 0.390625 C 14.664062 0.390625 13.671875 0.207031 12.796875 -0.15625 C 11.921875 -0.53125 11.050781 -1.195312 10.1875 -2.15625 L 9.828125 -2.15625 C 10.066406 -0.613281 10.1875 0.34375 10.1875 0.71875 L 10.1875 9.515625 L 2.609375 9.515625 L 2.609375 -21.9375 L 8.765625 -21.9375 L 9.828125 -19.140625 L 10.1875 -19.140625 C 11.59375 -21.253906 13.53125 -22.3125 16 -22.3125 C 18.425781 -22.3125 20.328125 -21.304688 21.703125 -19.296875 C 23.085938 -17.285156 23.78125 -14.523438 23.78125 -11.015625 C 23.78125 -7.472656 23.0625 -4.6875 21.625 -2.65625 C 20.1875 -0.625 18.238281 0.390625 15.78125 0.390625 Z M 13.234375 -16.375 C 12.128906 -16.375 11.351562 -15.976562 10.90625 -15.1875 C 10.457031 -14.394531 10.21875 -13.21875 10.1875 -11.65625 L 10.1875 -11.046875 C 10.1875 -9.160156 10.4375 -7.796875 10.9375 -6.953125 C 11.4375 -6.117188 12.226562 -5.703125 13.3125 -5.703125 C 14.28125 -5.703125 14.984375 -6.117188 15.421875 -6.953125 C 15.859375 -7.785156 16.078125 -9.164062 16.078125 -11.09375 C 16.078125 -12.976562 15.859375 -14.328125 15.421875 -15.140625 C 14.984375 -15.960938 14.253906 -16.375 13.234375 -16.375 Z M 13.234375 -16.375 "/></g></g></g><g fill="#000000" fill-opacity="1"><g transform="translate(147.832427, 321.483546)"><g><path d="M 13.203125 0.390625 C 9.546875 0.390625 6.707031 -0.578125 4.6875 -2.515625 C 2.675781 -4.460938 1.671875 -7.226562 1.671875 -10.8125 C 1.671875 -14.519531 2.601562 -17.363281 4.46875 -19.34375 C 6.34375 -21.320312 9.015625 -22.3125 12.484375 -22.3125 C 15.785156 -22.3125 18.335938 -21.453125 20.140625 -19.734375 C 21.941406 -18.015625 22.84375 -15.535156 22.84375 -12.296875 L 22.84375 -8.921875 L 9.3125 -8.921875 C 9.363281 -7.691406 9.8125 -6.726562 10.65625 -6.03125 C 11.5 -5.34375 12.648438 -5 14.109375 -5 C 15.441406 -5 16.664062 -5.125 17.78125 -5.375 C 18.894531 -5.625 20.101562 -6.050781 21.40625 -6.65625 L 21.40625 -1.21875 C 20.21875 -0.613281 18.988281 -0.195312 17.71875 0.03125 C 16.457031 0.269531 14.953125 0.390625 13.203125 0.390625 Z M 12.75 -17.171875 C 11.863281 -17.171875 11.117188 -16.890625 10.515625 -16.328125 C 9.921875 -15.765625 9.570312 -14.882812 9.46875 -13.6875 L 15.96875 -13.6875 C 15.945312 -14.738281 15.644531 -15.582031 15.0625 -16.21875 C 14.488281 -16.851562 13.71875 -17.171875 12.75 -17.171875 Z M 12.75 -17.171875 "/></g></g></g><g fill="#000000" fill-opacity="1"><g transform="translate(172.333804, 321.483546)"><g><path d="M 15.546875 0 L 7.890625 0 L 7.890625 -22.046875 L 0.984375 -22.046875 L 0.984375 -28.296875 L 22.4375 -28.296875 L 22.4375 -22.046875 L 15.546875 -22.046875 Z M 15.546875 0 "/></g></g></g><g fill="#000000" fill-opacity="1"><g transform="translate(195.751392, 321.483546)"><g><path d="M 23.5625 -11.015625 C 23.5625 -7.421875 22.59375 -4.617188 20.65625 -2.609375 C 18.726562 -0.609375 16.03125 0.390625 12.5625 0.390625 C 9.226562 0.390625 6.578125 -0.632812 4.609375 -2.6875 C 2.648438 -4.738281 1.671875 -7.515625 1.671875 -11.015625 C 1.671875 -14.585938 2.632812 -17.363281 4.5625 -19.34375 C 6.488281 -21.320312 9.191406 -22.3125 12.671875 -22.3125 C 14.828125 -22.3125 16.726562 -21.851562 18.375 -20.9375 C 20.03125 -20.019531 21.304688 -18.707031 22.203125 -17 C 23.109375 -15.289062 23.5625 -13.296875 23.5625 -11.015625 Z M 9.34375 -11.015625 C 9.34375 -9.128906 9.59375 -7.691406 10.09375 -6.703125 C 10.601562 -5.710938 11.453125 -5.21875 12.640625 -5.21875 C 13.816406 -5.21875 14.644531 -5.710938 15.125 -6.703125 C 15.613281 -7.691406 15.859375 -9.128906 15.859375 -11.015625 C 15.859375 -12.878906 15.609375 -14.289062 15.109375 -15.25 C 14.617188 -16.207031 13.78125 -16.6875 12.59375 -16.6875 C 11.4375 -16.6875 10.601562 -16.210938 10.09375 -15.265625 C 9.59375 -14.316406 9.34375 -12.898438 9.34375 -11.015625 Z M 9.34375 -11.015625 "/></g></g></g><g fill="#000000" fill-opacity="1"><g transform="translate(221.007565, 321.483546)"><g><path d="M 15.859375 -22.3125 C 16.515625 -22.3125 17.140625 -22.257812 17.734375 -22.15625 L 18.15625 -22.078125 L 17.484375 -14.9375 C 16.859375 -15.09375 16 -15.171875 14.90625 -15.171875 C 13.25 -15.171875 12.046875 -14.789062 11.296875 -14.03125 C 10.554688 -13.28125 10.1875 -12.195312 10.1875 -10.78125 L 10.1875 0 L 2.609375 0 L 2.609375 -21.9375 L 8.25 -21.9375 L 9.421875 -18.421875 L 9.796875 -18.421875 C 10.429688 -19.585938 11.3125 -20.523438 12.4375 -21.234375 C 13.5625 -21.953125 14.703125 -22.3125 15.859375 -22.3125 Z M 15.859375 -22.3125 "/></g></g></g><g fill="#000000" fill-opacity="1"><g transform="translate(239.606175, 321.483546)"><g><path d="M 23.5625 -11.015625 C 23.5625 -7.421875 22.59375 -4.617188 20.65625 -2.609375 C 18.726562 -0.609375 16.03125 0.390625 12.5625 0.390625 C 9.226562 0.390625 6.578125 -0.632812 4.609375 -2.6875 C 2.648438 -4.738281 1.671875 -7.515625 1.671875 -11.015625 C 1.671875 -14.585938 2.632812 -17.363281 4.5625 -19.34375 C 6.488281 -21.320312 9.191406 -22.3125 12.671875 -22.3125 C 14.828125 -22.3125 16.726562 -21.851562 18.375 -20.9375 C 20.03125 -20.019531 21.304688 -18.707031 22.203125 -17 C 23.109375 -15.289062 23.5625 -13.296875 23.5625 -11.015625 Z M 9.34375 -11.015625 C 9.34375 -9.128906 9.59375 -7.691406 10.09375 -6.703125 C 10.601562 -5.710938 11.453125 -5.21875 12.640625 -5.21875 C 13.816406 -5.21875 14.644531 -5.710938 15.125 -6.703125 C 15.613281 -7.691406 15.859375 -9.128906 15.859375 -11.015625 C 15.859375 -12.878906 15.609375 -14.289062 15.109375 -15.25 C 14.617188 -16.207031 13.78125 -16.6875 12.59375 -16.6875 C 11.4375 -16.6875 10.601562 -16.210938 10.09375 -15.265625 C 9.59375 -14.316406 9.34375 -12.898438 9.34375 -11.015625 Z M 9.34375 -11.015625 "/></g></g></g><g fill="#000000" fill-opacity="1"><g transform="translate(264.862348, 321.483546)"><g><path d="M 15.65625 -22.4375 C 13.832031 -22.4375 12.410156 -21.691406 11.390625 -20.203125 C 10.378906 -18.710938 9.875 -16.65625 9.875 -14.03125 C 9.875 -8.582031 11.941406 -5.859375 16.078125 -5.859375 C 17.335938 -5.859375 18.550781 -6.03125 19.71875 -6.375 C 20.894531 -6.726562 22.078125 -7.148438 23.265625 -7.640625 L 23.265625 -1.1875 C 20.898438 -0.132812 18.226562 0.390625 15.25 0.390625 C 10.976562 0.390625 7.703125 -0.847656 5.421875 -3.328125 C 3.148438 -5.804688 2.015625 -9.390625 2.015625 -14.078125 C 2.015625 -17.003906 2.566406 -19.578125 3.671875 -21.796875 C 4.773438 -24.015625 6.359375 -25.71875 8.421875 -26.90625 C 10.492188 -28.101562 12.929688 -28.703125 15.734375 -28.703125 C 18.796875 -28.703125 21.71875 -28.039062 24.5 -26.71875 L 22.15625 -20.6875 C 21.113281 -21.175781 20.066406 -21.585938 19.015625 -21.921875 C 17.972656 -22.265625 16.851562 -22.4375 15.65625 -22.4375 Z M 15.65625 -22.4375 "/></g></g></g><g fill="#000000" fill-opacity="1"><g transform="translate(290.583002, 321.483546)"><g/></g></g><g fill="#000000" fill-opacity="1"><g transform="translate(300.879, 321.483546)"><g><path d="M 15.96875 -8.09375 C 14.53125 -8.09375 13.378906 -7.800781 12.515625 -7.21875 C 11.648438 -6.632812 11.21875 -5.828125 11.21875 -4.796875 L 11.21875 0 C 11.21875 1.800781 10.898438 3.15625 10.265625 4.0625 C 9.640625 4.96875 8.617188 5.625 7.203125 6.03125 C 5.785156 6.445312 3.8125 6.65625 1.28125 6.65625 L 1.28125 1.28125 C 2.675781 1.226562 3.632812 1.035156 4.15625 0.703125 C 4.6875 0.378906 4.953125 -0.117188 4.953125 -0.796875 L 4.953125 -6.140625 C 4.953125 -7.523438 5.3125 -8.597656 6.03125 -9.359375 C 6.757812 -10.128906 7.945312 -10.640625 9.59375 -10.890625 L 9.59375 -11.125 C 7.957031 -11.363281 6.773438 -11.867188 6.046875 -12.640625 C 5.316406 -13.421875 4.953125 -14.539062 4.953125 -16 L 4.953125 -21.25 C 4.953125 -21.75 4.828125 -22.140625 4.578125 -22.421875 C 4.328125 -22.703125 4.003906 -22.910156 3.609375 -23.046875 C 3.210938 -23.179688 2.4375 -23.265625 1.28125 -23.296875 L 1.28125 -28.703125 C 3.8125 -28.703125 5.785156 -28.5 7.203125 -28.09375 C 8.617188 -27.6875 9.640625 -27.035156 10.265625 -26.140625 C 10.898438 -25.253906 11.21875 -23.914062 11.21875 -22.125 L 11.21875 -17.203125 C 11.21875 -16.160156 11.640625 -15.351562 12.484375 -14.78125 C 13.328125 -14.207031 14.488281 -13.921875 15.96875 -13.921875 Z M 15.96875 -8.09375 "/></g></g></g></svg>